<svg width="122" height="28" viewBox="0 0 122 28" fill="none" xmlns="http://www.w3.org/2000/svg">
<path id="Combined Shape" fill-rule="evenodd" clip-rule="evenodd" d="M16.6906 0.181885C16.87 1.82677 16.2235 3.44768 15.2786 4.6391C14.2925 5.81199 12.7151 6.70911 11.1788 6.59356C10.9777 5.01081 11.7561 3.32777 12.6276 2.30094C13.6125 1.13568 15.3229 0.242928 16.6906 0.181885ZM21.72 9.67065C21.5485 9.77383 18.7072 11.4836 18.7383 14.9706C18.7751 19.1815 22.3926 20.5735 22.4359 20.5876C22.4143 20.6857 21.8693 22.5988 20.5125 24.5369C19.3794 26.2461 18.1923 27.9171 16.3068 27.9455C15.41 27.9668 14.8046 27.707 14.1737 27.4362C13.516 27.154 12.8305 26.8598 11.7583 26.8598C10.6217 26.8598 9.90576 27.1637 9.21545 27.4567C8.61813 27.7103 8.03998 27.9557 7.22497 27.9891C5.42916 28.0556 4.05716 26.1665 2.88301 24.4726C0.535803 21.016 -1.29137 14.7319 1.15855 10.4556C2.34567 8.35835 4.51017 7.00778 6.82386 6.97181C7.8427 6.95081 8.81989 7.34668 9.67653 7.69372C10.3316 7.95911 10.9162 8.19593 11.395 8.19593C11.8156 8.19593 12.3838 7.96858 13.046 7.70358C14.0896 7.28597 15.3668 6.7749 16.6679 6.91295C17.5577 6.93911 20.0898 7.26721 21.7234 9.66859L21.72 9.67065ZM39.6875 17.2242L41.0062 21.1525H43.3739L38.169 6.61796H35.7513L30.5464 21.1525H32.8741L34.1928 17.2242H39.6875ZM36.9102 9.03536L34.7623 15.4112H39.1181L36.9701 9.03536H36.9102ZM55.0902 15.8544C55.0902 12.5003 53.3319 10.3851 50.6645 10.3851C49.1459 10.3851 47.9371 11.1606 47.3177 12.3794H47.2777V10.5563H45.1898V24.6577H47.3477V19.4099H47.3976C47.9971 20.5884 49.1959 21.3338 50.7044 21.3338C53.3419 21.3338 55.0902 19.2085 55.0902 15.8544ZM50.095 19.4905C51.8034 19.4905 52.8723 18.0804 52.8723 15.8544C52.8723 13.6384 51.8034 12.2182 50.095 12.2182C48.4466 12.2182 47.3377 13.6687 47.3377 15.8544C47.3377 18.0602 48.4366 19.4905 50.095 19.4905ZM67.1361 15.8544C67.1361 12.5003 65.3778 10.3851 62.7104 10.3851C61.1919 10.3851 59.983 11.1606 59.3636 12.3794H59.3237V10.5563H57.2357V24.6577H59.3936V19.4099H59.4436C60.043 20.5884 61.2418 21.3338 62.7504 21.3338C65.3878 21.3338 67.1361 19.2085 67.1361 15.8544ZM62.1409 19.4905C63.8493 19.4905 64.9183 18.0804 64.9183 15.8544C64.9183 13.6384 63.8493 12.2182 62.1409 12.2182C60.4925 12.2182 59.3836 13.6687 59.3836 15.8544C59.3836 18.0602 60.4826 19.4905 62.1409 19.4905ZM75.743 17.1034H73.5352C73.675 19.7323 75.8329 21.3942 79.0298 21.3942C82.4465 21.3942 84.5944 19.692 84.5944 16.9724C84.5944 14.8471 83.3656 13.6485 80.4085 12.9435L78.82 12.5506C76.9618 12.0873 76.2026 11.483 76.2026 10.4556C76.2026 9.1663 77.3914 8.27993 79.1297 8.27993C80.868 8.27993 82.0569 9.15623 82.1868 10.6067H84.3647C84.2947 8.09863 82.2067 6.37624 79.1597 6.37624C76.0827 6.37624 73.9148 8.09863 73.9148 10.6067C73.9148 12.6312 75.1436 13.8802 77.791 14.5248L79.6592 14.9781C81.5274 15.4414 82.3166 16.1163 82.3166 17.2444C82.3166 18.5437 81.0079 19.4905 79.1897 19.4905C77.2915 19.4905 75.9029 18.5437 75.743 17.1034ZM87.4593 8.04825H89.6272V10.5563H91.6252V12.2787H89.6272V18.1207C89.6272 19.0373 90.0268 19.4502 90.9059 19.4502C91.1257 19.4502 91.4754 19.4301 91.6152 19.3999V21.1222C91.3755 21.1827 90.8959 21.223 90.4164 21.223C88.2885 21.223 87.4593 20.4071 87.4593 18.3624V12.2787H85.9307V10.5563H87.4593V8.04825ZM93.1613 15.8544C93.1613 19.2689 95.1394 21.3539 98.1465 21.3539C101.154 21.3539 103.132 19.2689 103.132 15.8544C103.132 12.4499 101.144 10.3649 98.1465 10.3649C95.1494 10.3649 93.1613 12.4499 93.1613 15.8544ZM98.1465 19.561C99.8449 19.561 100.934 18.2113 100.934 15.8544C100.934 13.5075 99.8349 12.1578 98.1465 12.1578C96.4581 12.1578 95.3592 13.5075 95.3592 15.8544C95.3592 18.2113 96.4581 19.561 98.1465 19.561ZM107.345 10.5563H105.287V21.1525H107.445V14.8068C107.445 13.3061 108.304 12.3693 109.693 12.3693C110.113 12.3693 110.492 12.4197 110.662 12.4902V10.4656C110.502 10.4354 110.232 10.3851 109.923 10.3851C108.684 10.3851 107.745 11.1203 107.395 12.3592H107.345V10.5563ZM119.451 18.0401H121.499C121.199 19.974 119.381 21.3539 116.973 21.3539C113.886 21.3539 112.018 19.2488 112.018 15.9047C112.018 12.5808 113.916 10.3649 116.884 10.3649C119.801 10.3649 121.619 12.4398 121.619 15.6529V16.3983H114.196V16.5292C114.196 18.3725 115.295 19.5912 117.023 19.5912C118.252 19.5912 119.161 18.9667 119.451 18.0401ZM114.27 14.5781C114.38 12.9766 115.439 11.8182 116.947 11.8182C118.456 11.8182 119.475 12.9564 119.525 14.5781H114.27Z" fill="#F4F4F4"/>
</svg>
