<svg width="33" height="24" viewBox="0 0 33 24" fill="none" xmlns="http://www.w3.org/2000/svg">
<path d="M27.9222 1.99455C25.8321 1.06479 23.5692 0.389967 21.212 6.89792e-05C21.1913 -0.00056176 21.1708 0.00313939 21.1518 0.0109123C21.1327 0.0186852 21.1158 0.030341 21.102 0.0450575C20.8191 0.539928 20.4891 1.18476 20.2691 1.67963C17.7689 1.31972 15.2262 1.31972 12.726 1.67963C12.506 1.16976 12.176 0.539928 11.8774 0.0450575C11.8617 0.0150654 11.8146 6.89792e-05 11.7674 6.89792e-05C9.41023 0.389967 7.16303 1.06479 5.05725 1.99455C5.04154 1.99455 5.02582 2.00954 5.01011 2.02454C0.735707 8.12794 -0.442897 14.0664 0.138547 19.9448C0.138547 19.9748 0.154262 20.0048 0.185691 20.0198C3.01434 21.9993 5.73299 23.199 8.4202 23.9938C8.46735 24.0088 8.51449 23.9938 8.53021 23.9638C9.15879 23.139 9.72452 22.2692 10.2117 21.3545C10.2431 21.2945 10.2117 21.2345 10.1488 21.2195C9.25308 20.8896 8.40449 20.4997 7.57161 20.0498C7.50875 20.0198 7.50875 19.9299 7.55589 19.8849C7.72876 19.7649 7.90162 19.6299 8.07448 19.51C8.10591 19.48 8.15305 19.48 8.18448 19.495C13.5903 21.8493 19.4205 21.8493 24.7635 19.495C24.7949 19.48 24.8421 19.48 24.8735 19.51C25.0464 19.6449 25.2192 19.7649 25.3921 19.8999C25.455 19.9448 25.455 20.0348 25.3764 20.0648C24.5592 20.5297 23.6949 20.9046 22.7992 21.2345C22.7363 21.2495 22.7206 21.3245 22.7363 21.3695C23.2392 22.2842 23.8049 23.154 24.4178 23.9788C24.4649 23.9938 24.5121 24.0088 24.5592 23.9938C27.2621 23.199 29.9808 21.9993 32.8094 20.0198C32.8409 20.0048 32.8566 19.9748 32.8566 19.9448C33.548 13.1516 31.7094 7.25817 27.985 2.02454C27.9693 2.00954 27.9536 1.99455 27.9222 1.99455ZM11.0288 16.3608C9.41023 16.3608 8.05877 14.9362 8.05877 13.1816C8.05877 11.4271 9.3788 10.0024 11.0288 10.0024C12.6946 10.0024 14.0146 11.4421 13.9989 13.1816C13.9989 14.9362 12.6789 16.3608 11.0288 16.3608ZM21.982 16.3608C20.3634 16.3608 19.0119 14.9362 19.0119 13.1816C19.0119 11.4271 20.332 10.0024 21.982 10.0024C23.6478 10.0024 24.9678 11.4421 24.9521 13.1816C24.9521 14.9362 23.6478 16.3608 21.982 16.3608Z" fill="currentColor"/>
</svg>
