<svg width="123" height="23" viewBox="0 0 123 23" fill="none" xmlns="http://www.w3.org/2000/svg">
<path id="Combined Shape" fill-rule="evenodd" clip-rule="evenodd" d="M1.77917 0.232865L14.6268 7.29977L11.5798 10.4088L1.33085 0.0908203C1.48611 0.111366 1.64195 0.157334 1.77917 0.232865ZM0.577309 0.218527L11.1428 10.8549L0.628034 21.5845C0.321191 21.3879 0.156701 20.9622 0.153916 20.4124L0.0586231 1.36893C0.055691 0.766751 0.272959 0.399445 0.577309 0.218527ZM33.0656 9.99093H39.7237C39.7284 10.01 39.8441 10.4913 39.8441 11.3116C39.8441 15.2803 36.9997 17.9642 33.1139 17.9642C28.6957 17.9642 25.6949 14.3427 25.6949 10.6287C25.6949 6.83846 28.8851 3.32932 33.0088 3.32947C36.2473 3.32947 38.023 5.32238 38.023 5.32238L36.6395 6.76677C36.6395 6.76677 35.3196 5.32696 33.0795 5.32696C30.1763 5.32696 27.8607 7.64904 27.8607 10.6642C27.8607 13.7592 30.2898 15.9676 33.0735 15.9676C35.2492 15.9676 37.5543 14.7763 37.7877 11.983H33.0656V9.99093ZM40.6935 13.2135C40.6935 10.7017 42.6514 8.54831 45.3837 8.54831C47.6294 8.54831 50.0648 10.1528 50.0648 13.2682C50.0648 15.9862 47.9711 17.9556 45.4155 17.9556C42.5925 17.9556 40.6935 15.7621 40.6935 13.2135ZM55.6945 8.54831C52.9624 8.54831 51.0044 10.7017 51.0044 13.2135C51.0044 15.7621 52.9035 17.9556 55.7266 17.9556C58.2821 17.9556 60.3757 15.9862 60.3757 13.2682C60.3757 10.1528 57.9405 8.54831 55.6945 8.54831ZM48.0274 13.2557C48.0274 11.491 46.7543 10.3958 45.4107 10.3958V10.3959C43.9011 10.3959 42.7409 11.6127 42.7409 13.242C42.7409 14.9071 43.9156 16.1093 45.4045 16.1093C46.7596 16.1093 48.0274 14.9829 48.0274 13.2557ZM55.7216 10.3958C57.0651 10.3958 58.3384 11.491 58.3384 13.2557C58.3384 14.9829 57.0706 16.1093 55.7153 16.1093C54.2266 16.1093 53.052 14.9071 53.052 13.242C53.052 11.6127 54.2119 10.3959 55.7216 10.3959V10.3958ZM61.315 13.2531C61.315 10.7677 63.2864 8.55334 65.7939 8.55334V8.55349C66.8857 8.55349 67.7082 8.97932 68.3095 9.63279V8.8361H70.2655V17.2881C70.2655 20.6089 68.3652 22.192 65.8718 22.192C63.5924 22.192 62.312 20.7789 61.6757 19.4222L63.4688 18.6664C63.7171 19.2726 64.432 20.3414 65.857 20.3414C67.3321 20.3414 68.3094 19.3691 68.3094 17.7463V16.8188C67.7875 17.4296 67.0806 17.9618 65.7507 17.9618C63.6003 17.9618 61.315 16.0844 61.315 13.2531ZM65.9754 10.3971C67.205 10.3971 68.4676 11.4556 68.4676 13.2631C68.4676 15.1004 67.2076 16.1129 65.9483 16.1129C64.6116 16.1129 63.3675 15.0185 63.3675 13.2806C63.3675 11.4748 64.6595 10.3971 65.9754 10.3971ZM75.0222 13.2395C75.0222 10.4395 77.0083 8.54196 79.3738 8.54196L79.3739 8.54225C81.2396 8.54225 82.6492 9.79656 83.2535 11.2985L83.5784 12.0654L77.3226 14.6824C77.6963 15.3837 78.2994 16.1079 79.6108 16.108C80.7784 16.108 81.4781 15.468 81.8967 14.8131L83.5093 15.895C82.7863 16.8706 81.5749 17.9592 79.601 17.9592C77.236 17.9592 75.0222 16.2022 75.0222 13.2395ZM79.4554 10.3511C80.3078 10.3511 80.9212 10.8079 81.1817 11.3558L77.0041 13.1162C76.824 11.7533 78.1048 10.3511 79.4553 10.3511H79.4554ZM73.889 17.68H71.8342V3.81591H73.889V17.68ZM99.3838 17.68H101.439V3.81591H99.3838V17.68ZM90.5421 17.68H88.4873V12.649V3.81591V3.81576H93.4577C95.8672 3.81576 97.8384 5.8032 97.8384 8.23244C97.8384 10.6615 95.8672 12.649 93.4577 12.649H90.5421V17.68ZM90.5421 10.5773V5.88745H93.4577C94.7331 5.88745 95.7838 6.94665 95.7838 8.23244C95.7838 9.51809 94.7331 10.5773 93.4577 10.5773H90.5421ZM116.609 22.192L122.559 8.54225H120.315L117.622 14.7191L114.93 8.54225H112.686L116.5 17.2937L114.365 22.192H116.609ZM109.848 17.68H111.903V12.6936C112.225 7.5509 105.758 6.34137 103.311 10.0487L104.964 11.1673C106.161 9.0584 109.575 9.54366 109.799 11.8038C108.773 11.5298 107.665 11.3311 106.652 11.4344C105.071 11.5957 103.718 12.6079 103.503 14.2657C103.386 15.1616 103.585 16.2659 104.205 16.9388C105.172 17.9874 106.759 18.1287 108.063 17.7704C108.797 17.5687 109.375 17.1289 109.848 16.5609V17.68ZM107.574 15.9633C108.699 15.6545 109.585 14.8252 109.848 13.6723C109.273 13.4845 108.744 13.333 108.138 13.2593C104.607 12.7241 105.198 16.6163 107.574 15.9633ZM15.1982 14.0514L12.0199 10.8518L15.1949 7.61224L19.5673 10.0169C20.6444 10.6091 20.0934 11.3499 19.5673 11.6402L15.1982 14.0514ZM1.77917 21.4559C1.68212 21.5106 1.58858 21.5535 1.49901 21.5874L11.5829 11.2979L14.6295 14.3649L1.77917 21.4559Z" fill="#F4F4F4"/>
</svg>
