<svg width="1158" height="206" viewBox="0 0 1158 206" fill="none" xmlns="http://www.w3.org/2000/svg">
<path fill-rule="evenodd" clip-rule="evenodd" d="M0 0L24.125 24.5238C48.25 49.0476 96.5 98.0952 144.75 112.81C193 127.524 241.25 107.905 289.5 73.5714C337.75 39.2381 386 -9.80952 434.25 9.80952C482.5 29.4286 530.75 117.714 579 161.857C627.25 206 675.5 206 723.75 191.286C772 176.571 820.25 147.143 868.5 132.429C916.75 117.714 965 117.714 1013.25 127.524C1061.5 137.333 1109.75 156.952 1133.88 166.762L1158 176.571V206H1133.88C1109.75 206 1061.5 206 1013.25 206C965 206 916.75 206 868.5 206C820.25 206 772 206 723.75 206C675.5 206 627.25 206 579 206C530.75 206 482.5 206 434.25 206C386 206 337.75 206 289.5 206C241.25 206 193 206 144.75 206C96.5 206 48.25 206 24.125 206H0V0Z" fill="#F4F4F4"/>
<path fill-rule="evenodd" clip-rule="evenodd" d="M0 0L24.125 24.5238C48.25 49.0476 96.5 98.0952 144.75 112.81C193 127.524 241.25 107.905 289.5 73.5714C337.75 39.2381 386 -9.80952 434.25 9.80952C482.5 29.4286 530.75 117.714 579 161.857C627.25 206 675.5 206 723.75 191.286C772 176.571 820.25 147.143 868.5 132.429C916.75 117.714 965 117.714 1013.25 127.524C1061.5 137.333 1109.75 156.952 1133.88 166.762L1158 176.571V206H1133.88C1109.75 206 1061.5 206 1013.25 206C965 206 916.75 206 868.5 206C820.25 206 772 206 723.75 206C675.5 206 627.25 206 579 206C530.75 206 482.5 206 434.25 206C386 206 337.75 206 289.5 206C241.25 206 193 206 144.75 206C96.5 206 48.25 206 24.125 206H0V0Z" fill="url(#paint0_linear_403_165)"/>
<defs>
<linearGradient id="paint0_linear_403_165" x1="1167.5" y1="102.5" x2="1082.33" y2="436.477" gradientUnits="userSpaceOnUse">
<stop stop-color="#FF82C7"/>
<stop offset="1" stop-color="#03F3FA" stop-opacity="0.22"/>
</linearGradient>
</defs>
</svg>
