<svg width="28" height="28" viewBox="0 0 28 28" fill="none" xmlns="http://www.w3.org/2000/svg">
<path d="M8.39984 0.666748H19.5998C23.8665 0.666748 27.3332 4.13341 27.3332 8.40008V19.6001C27.3332 21.6511 26.5184 23.6181 25.0681 25.0684C23.6178 26.5187 21.6508 27.3334 19.5998 27.3334H8.39984C4.13317 27.3334 0.666504 23.8667 0.666504 19.6001V8.40008C0.666504 6.34907 1.48126 4.38207 2.93154 2.93179C4.38183 1.48151 6.34883 0.666748 8.39984 0.666748ZM8.13317 3.33341C6.86013 3.33341 5.63923 3.83913 4.73906 4.7393C3.83888 5.63948 3.33317 6.86038 3.33317 8.13341V19.8667C3.33317 22.5201 5.47984 24.6667 8.13317 24.6667H19.8665C21.1395 24.6667 22.3604 24.161 23.2606 23.2609C24.1608 22.3607 24.6665 21.1398 24.6665 19.8667V8.13341C24.6665 5.48008 22.5198 3.33341 19.8665 3.33341H8.13317ZM20.9998 5.33341C21.4419 5.33341 21.8658 5.50901 22.1783 5.82157C22.4909 6.13413 22.6665 6.55805 22.6665 7.00008C22.6665 7.44211 22.4909 7.86603 22.1783 8.17859C21.8658 8.49115 21.4419 8.66675 20.9998 8.66675C20.5578 8.66675 20.1339 8.49115 19.8213 8.17859C19.5088 7.86603 19.3332 7.44211 19.3332 7.00008C19.3332 6.55805 19.5088 6.13413 19.8213 5.82157C20.1339 5.50901 20.5578 5.33341 20.9998 5.33341ZM13.9998 7.33341C15.7679 7.33341 17.4636 8.03579 18.7139 9.28604C19.9641 10.5363 20.6665 12.232 20.6665 14.0001C20.6665 15.7682 19.9641 17.4639 18.7139 18.7141C17.4636 19.9644 15.7679 20.6667 13.9998 20.6667C12.2317 20.6667 10.536 19.9644 9.28579 18.7141C8.03555 17.4639 7.33317 15.7682 7.33317 14.0001C7.33317 12.232 8.03555 10.5363 9.28579 9.28604C10.536 8.03579 12.2317 7.33341 13.9998 7.33341ZM13.9998 10.0001C12.939 10.0001 11.9216 10.4215 11.1714 11.1717C10.4213 11.9218 9.99984 12.9392 9.99984 14.0001C9.99984 15.0609 10.4213 16.0784 11.1714 16.8285C11.9216 17.5787 12.939 18.0001 13.9998 18.0001C15.0607 18.0001 16.0781 17.5787 16.8283 16.8285C17.5784 16.0784 17.9998 15.0609 17.9998 14.0001C17.9998 12.9392 17.5784 11.9218 16.8283 11.1717C16.0781 10.4215 15.0607 10.0001 13.9998 10.0001Z" fill="currentColor"/>
</svg>
