<svg width="22" height="18" viewBox="0 0 22 18" fill="none" xmlns="http://www.w3.org/2000/svg">
<path d="M7.26758 5.40625V3.45312C7.26758 2.93512 7.47335 2.43834 7.83963 2.07206C8.20592 1.70578 8.7027 1.5 9.2207 1.5H18.5957C19.1137 1.5 19.6105 1.70578 19.9768 2.07206C20.3431 2.43834 20.5488 2.93512 20.5488 3.45312V15.1719C20.5488 15.6899 20.3431 16.1867 19.9768 16.5529C19.6105 16.9192 19.1137 17.125 18.5957 17.125H9.2207C8.7027 17.125 8.20592 16.9192 7.83963 16.5529C7.47335 16.1867 7.26758 15.6899 7.26758 15.1719V13.2188M10.4238 5.40625L14.3301 9.3125M14.3301 9.3125L10.4238 13.2188M14.3301 9.3125H1" stroke="#BCF085" stroke-width="1.5625" stroke-linecap="round" stroke-linejoin="round"/>
</svg>
