<svg width="115" height="33" viewBox="0 0 115 33" fill="none" xmlns="http://www.w3.org/2000/svg">
<path fill-rule="evenodd" clip-rule="evenodd" d="M37.1416 7.67822H32.949L28.8518 30.5418H33.0406L37.1416 7.67822ZM41.7347 24.3839H52.4164C52.8148 23.407 52.9909 22.3563 52.9323 21.3055C52.8736 20.2547 52.5817 19.2293 52.0768 18.3009C51.51 17.3102 50.6705 16.4963 49.6544 15.9524C48.5659 15.3828 47.3474 15.0953 46.1142 15.1171C44.6171 15.1111 43.1449 15.4935 41.8467 16.2256C40.5484 16.9577 39.4701 18.0134 38.7209 19.286C37.9575 20.5601 37.5618 22.0143 37.5764 23.4924C37.5516 24.8434 37.901 26.1756 38.5874 27.3467C39.2572 28.465 40.236 29.3741 41.4104 29.9687C42.6818 30.6132 44.096 30.9387 45.5267 30.9163C47.7984 30.9569 50.0103 30.1998 51.764 28.7813L50.2381 26.0058C48.9696 26.898 47.4531 27.3869 45.8929 27.4066C44.8951 27.4527 43.9088 27.1807 43.0813 26.6313C42.349 26.0851 41.8652 25.2777 41.7347 24.3839ZM43.3178 19.2299C44.0195 18.6695 44.901 18.3722 45.8052 18.3908C46.2214 18.3699 46.6375 18.4336 47.0274 18.578C47.4174 18.7224 47.7727 18.9443 48.0712 19.2299C48.6516 19.8461 48.9637 20.6607 48.941 21.4997H41.83C42.0774 20.6113 42.5968 19.8189 43.3178 19.2299ZM58.7796 29.9616C57.6265 29.3595 56.6693 28.4509 56.0176 27.3396C55.3427 26.1647 55.0002 24.834 55.0257 23.4853C55.0049 22.0086 55.3923 20.554 56.1467 19.2764C56.9011 17.9987 57.9943 16.9459 59.3099 16.23C60.6549 15.4904 62.1747 15.1119 63.7161 15.1325C65.145 15.1045 66.5535 15.4691 67.7827 16.185C68.9413 16.8631 69.854 17.881 70.3921 19.0954L67.2868 21.1068C66.3331 19.5811 65.0907 18.8182 63.5597 18.8182C62.7884 18.8104 62.0306 19.0168 61.3737 19.4138C60.721 19.8106 60.1856 20.3685 59.8211 21.0319C59.432 21.7268 59.2336 22.5089 59.245 23.3018C59.2245 23.8205 59.3086 24.338 59.4926 24.8246C59.6766 25.3112 59.9568 25.7573 60.317 26.1372C60.6707 26.4992 61.0981 26.784 61.5714 26.9731C62.0446 27.1622 62.5531 27.2513 63.0637 27.2347C64.5312 27.2347 65.7837 26.5742 66.8214 25.2533L69.5223 27.5381C68.8084 28.6101 67.8241 29.4824 66.665 30.0702C65.4309 30.6477 64.0782 30.9396 62.7112 30.9233C61.3442 30.9071 59.9991 30.5832 58.7796 29.9765V29.9616ZM77.9042 25.4515C77.901 25.2154 77.9215 24.9795 77.9653 24.7473L79.0525 18.8966H83.5045L84.092 15.4506H79.6858L80.3915 11.6413H76.1952L75.5123 15.4506H73.0898L72.5023 18.8966H74.8943L73.8376 24.7473C73.747 25.2308 73.6947 25.7205 73.6811 26.2119C73.6837 27.7551 74.2483 28.9237 75.375 29.7178C76.5016 30.5119 78.0174 30.909 79.9223 30.909C80.546 30.9047 81.1683 30.8533 81.784 30.7554L82.4058 27.3094C82.1388 27.3393 81.7 27.3393 81.1011 27.3393C80.2767 27.3883 79.4524 27.2418 78.6977 26.9123C78.4362 26.7698 78.2222 26.5561 78.0814 26.2969C77.9407 26.0378 77.8791 25.7442 77.9042 25.4515ZM96.9633 15.604L96.3147 19.1999C95.7689 19.1175 95.2186 19.0662 94.6667 19.0463C93.6403 19.0018 92.6338 19.3343 91.8437 19.979C91.0654 20.6979 90.5709 21.6637 90.4474 22.7058L89.0474 30.5418H84.851L87.5519 15.4505H91.4011L91.1227 16.975C91.6339 16.4261 92.2581 15.9903 92.954 15.6965C93.6499 15.4026 94.4014 15.2575 95.1588 15.2707C95.7739 15.2689 96.3836 15.382 96.9556 15.604H96.9633ZM111.964 30.542L114.6 15.4507L110.43 15.4694L110.117 17.2374C109.604 16.5531 108.912 16.0174 108.114 15.6867C107.197 15.3037 106.208 15.1161 105.211 15.1361C103.733 15.1137 102.277 15.5033 101.015 16.2598C99.757 17.0164 98.7282 18.0898 98.0356 19.3687C97.2996 20.7125 96.9242 22.218 96.9445 23.7436C96.9246 25.0198 97.2232 26.2814 97.8143 27.4181C98.36 28.4685 99.187 29.3529 100.206 29.9764C101.236 30.6044 102.428 30.9282 103.64 30.9091C104.535 30.9141 105.423 30.7421 106.249 30.4034C107.037 30.0817 107.745 29.5991 108.328 28.9876L108.05 30.542H111.964ZM109.198 22.6162C109.217 23.8277 108.773 25.0023 107.954 25.9086H107.966C107.592 26.3297 107.129 26.6653 106.609 26.8918C106.089 27.1182 105.525 27.2301 104.956 27.2196C104.459 27.2377 103.964 27.1519 103.504 26.9679C103.043 26.7838 102.628 26.5057 102.285 26.1521C101.582 25.3852 101.215 24.3773 101.263 23.3466C101.251 22.5416 101.442 21.7463 101.82 21.0318C102.172 20.3603 102.699 19.7919 103.346 19.3837C103.991 18.9814 104.741 18.7707 105.505 18.7769C106.002 18.7583 106.496 18.8435 106.957 19.0269C107.417 19.2103 107.833 19.4877 108.176 19.8406C108.874 20.5985 109.241 21.5952 109.198 22.6162ZM28.2 14.1397L28.8524 10.424H19.6585L17.114 14.1397H28.2ZM8.99998 30.2196L10.0567 24.4475L15.779 16.0947L15.3861 18.226H27.506L26.888 21.7319H14.7452L13.8144 26.8223H26.1212L25.4689 30.5417H13.1315H8.94276H8.7749L8.99998 30.2196Z" fill="url(#paint0_linear_46_1465)"/>
<path d="M14.4966 0H4.95936L0 16.4809H4.57787L0.381489 32.4L17.5485 7.30405H11.0632L14.4966 0Z" fill="url(#paint1_linear_46_1465)"/>
<defs>
<linearGradient id="paint0_linear_46_1465" x1="10.3009" y1="28.4669" x2="114.423" y2="20.1154" gradientUnits="userSpaceOnUse">
<stop stop-color="#00CAD9"/>
<stop offset="1" stop-color="#BBEF85"/>
</linearGradient>
<linearGradient id="paint1_linear_46_1465" x1="13.9244" y1="-1.1237" x2="-1.25245" y2="31.8645" gradientUnits="userSpaceOnUse">
<stop stop-color="#CBF27D"/>
<stop offset="1" stop-color="#16CED0"/>
</linearGradient>
</defs>
</svg>
