<svg width="111" height="32" viewBox="0 0 111 32" fill="none" xmlns="http://www.w3.org/2000/svg">
<path fill-rule="evenodd" clip-rule="evenodd" d="M35.971 7.58398H31.91L27.9415 30.1653H31.9987L35.971 7.58398ZM40.4228 24.0832H50.7692C51.1552 23.1183 51.3257 22.0806 51.2689 21.0428C51.2121 20.005 50.9293 18.9922 50.4404 18.0753C49.8913 17.0969 49.0782 16.293 48.0939 15.7558C47.0396 15.1932 45.8594 14.9092 44.6649 14.9308C43.2147 14.9249 41.7888 15.3026 40.5313 16.0256C39.2738 16.7486 38.2294 17.7914 37.5037 19.0483C36.7642 20.3066 36.381 21.7428 36.3951 23.2027C36.3711 24.537 36.7095 25.8528 37.3743 27.0095C38.0231 28.114 38.9712 29.0118 40.1087 29.5991C41.3403 30.2356 42.71 30.5571 44.0958 30.535C46.2963 30.575 48.4387 29.8273 50.1374 28.4263L48.6593 25.6851C47.4307 26.5663 45.9618 27.0491 44.4505 27.0686C43.484 27.1141 42.5287 26.8455 41.7272 26.3029C41.0179 25.7634 40.5493 24.966 40.4228 24.0832ZM41.9563 18.9928C42.6359 18.4394 43.4897 18.1457 44.3655 18.1641C44.7687 18.1434 45.1717 18.2064 45.5494 18.349C45.9272 18.4916 46.2714 18.7108 46.5605 18.9928C47.1226 19.6015 47.4249 20.406 47.403 21.2347H40.5152C40.7548 20.3572 41.2579 19.5746 41.9563 18.9928ZM56.9303 29.5923C55.8134 28.9977 54.8862 28.1003 54.255 27.0027C53.6012 25.8424 53.2695 24.528 53.2943 23.196C53.2741 21.7375 53.6493 20.3009 54.38 19.039C55.1108 17.7771 56.1696 16.7373 57.4439 16.0302C58.7467 15.2998 60.2188 14.926 61.7118 14.9463C63.0959 14.9187 64.4602 15.2787 65.6508 15.9858C66.7731 16.6555 67.6571 17.6609 68.1783 18.8603L65.1705 20.8469C64.2467 19.34 63.0433 18.5865 61.5603 18.5865C60.8133 18.5788 60.0792 18.7827 59.443 19.1747C58.8108 19.5667 58.2922 20.1177 57.9391 20.7729C57.5623 21.4592 57.37 22.2317 57.3811 23.0147C57.3612 23.527 57.4427 24.0382 57.6209 24.5188C57.7991 24.9994 58.0705 25.44 58.4194 25.8152C58.7621 26.1727 59.176 26.454 59.6344 26.6408C60.0928 26.8275 60.5853 26.9155 61.0799 26.8991C62.5013 26.8991 63.7146 26.2468 64.7197 24.9421L67.3358 27.1988C66.6443 28.2576 65.6908 29.1191 64.5682 29.6996C63.3728 30.27 62.0626 30.5582 60.7385 30.5422C59.4144 30.5262 58.1116 30.2063 56.9303 29.6071V29.5923ZM75.4557 25.1378C75.4526 24.9046 75.4724 24.6717 75.5148 24.4423L76.5679 18.6638H80.8801L81.4492 15.2604H77.1813L77.8649 11.498H73.8002L73.1388 15.2604H70.7924L70.2234 18.6638H72.5402L71.5167 24.4423C71.4289 24.9198 71.3783 25.4034 71.3652 25.8888C71.3676 27.4129 71.9145 28.5672 73.0058 29.3514C74.0971 30.1357 75.5653 30.5279 77.4104 30.5279C78.0145 30.5236 78.6173 30.4729 79.2136 30.3762L79.8159 26.9727C79.5573 27.0023 79.1323 27.0023 78.5522 27.0023C77.7537 27.0506 76.9552 26.906 76.2243 26.5806C75.9709 26.4398 75.7636 26.2287 75.6273 25.9728C75.4909 25.7168 75.4313 25.4269 75.4557 25.1378ZM93.9164 15.4118L93.2882 18.9633C92.7595 18.8819 92.2265 18.8312 91.6919 18.8116C90.6977 18.7676 89.7229 19.096 88.9575 19.7328C88.2037 20.4428 87.7247 21.3967 87.6051 22.4259L86.249 30.1651H82.1843L84.8005 15.2602H88.5289L88.2591 16.7658C88.7543 16.2238 89.3589 15.7933 90.033 15.5031C90.707 15.2129 91.435 15.0696 92.1686 15.0826C92.7643 15.0808 93.355 15.1926 93.909 15.4118H93.9164ZM108.444 30.1649L110.997 15.2599L106.958 15.2784L106.655 17.0246C106.158 16.3487 105.488 15.8196 104.715 15.493C103.827 15.1148 102.868 14.9294 101.903 14.9492C100.471 14.9271 99.0615 15.3119 97.8386 16.059C96.6201 16.8063 95.6236 17.8665 94.9527 19.1295C94.2399 20.4567 93.8762 21.9437 93.8959 23.4505C93.8765 24.7109 94.1658 25.9569 94.7383 27.0796C95.2669 28.117 96.0679 28.9905 97.0552 29.6063C98.0525 30.2266 99.207 30.5464 100.381 30.5275C101.248 30.5324 102.108 30.3625 102.908 30.028C103.671 29.7103 104.358 29.2336 104.922 28.6297L104.652 30.1649H108.444ZM105.765 22.3369C105.783 23.5335 105.353 24.6936 104.56 25.5887H104.571C104.209 26.0046 103.76 26.336 103.257 26.5597C102.753 26.7834 102.207 26.8939 101.656 26.8835C101.174 26.9014 100.695 26.8167 100.249 26.6349C99.8031 26.4531 99.4009 26.1785 99.0691 25.8292C98.388 25.0718 98.0323 24.0764 98.0788 23.0583C98.0671 22.2633 98.2524 21.4778 98.6182 20.7721C98.9596 20.109 99.4694 19.5475 100.096 19.1443C100.721 18.7471 101.447 18.539 102.188 18.545C102.669 18.5267 103.148 18.6108 103.594 18.792C104.04 18.9731 104.442 19.247 104.774 19.5957C105.45 20.3442 105.806 21.3286 105.765 22.3369ZM27.3092 13.9652L27.9411 10.2954H19.0358L16.5711 13.9652H27.3092ZM8.71411 29.847L9.73766 24.1462L15.2804 15.8965L14.8998 18.0015H26.6392L26.0406 21.4641H14.279L13.3774 26.4916H25.2979L24.666 30.1652H12.7159H8.65868H8.49609L8.71411 29.847Z" fill="white"/>
<path d="M14.0415 0H4.80368L0 16.2775H4.43417L0.369514 32L16.9976 7.21387H10.7159L14.0415 0Z" fill="url(#paint0_linear_46_1595)"/>
<defs>
<linearGradient id="paint0_linear_46_1595" x1="13.4873" y1="-1.10983" x2="-1.69161" y2="31.2466" gradientUnits="userSpaceOnUse">
<stop stop-color="#CBF27D"/>
<stop offset="1" stop-color="#16CED0"/>
</linearGradient>
</defs>
</svg>
