<svg width="23" height="19" viewBox="0 0 23 19" fill="none" xmlns="http://www.w3.org/2000/svg">
<path d="M14.625 5.59375V3.64062C14.625 3.12262 14.4192 2.62584 14.0529 2.25956C13.6867 1.89328 13.1899 1.6875 12.6719 1.6875H3.29688C2.77887 1.6875 2.28209 1.89328 1.91581 2.25956C1.54953 2.62584 1.34375 3.12262 1.34375 3.64062V15.3594C1.34375 15.8774 1.54953 16.3742 1.91581 16.7404C2.28209 17.1067 2.77887 17.3125 3.29688 17.3125H12.6719C13.1899 17.3125 13.6867 17.1067 14.0529 16.7404C14.4192 16.3742 14.625 15.8774 14.625 15.3594V13.4062M17.75 5.59375L21.6562 9.5M21.6562 9.5L17.75 13.4062M21.6562 9.5H8.32617" stroke="#161616" stroke-width="1.5625" stroke-linecap="round" stroke-linejoin="round"/>
</svg>
