<svg width="26" height="27" viewBox="0 0 26 27" fill="none" xmlns="http://www.w3.org/2000/svg">
<path d="M24.2638 1.01245L14.5135 8.83297L16.3269 4.21758L24.2638 1.01245Z" fill="#E17726" stroke="#E17726" stroke-width="0.426143" stroke-linecap="round" stroke-linejoin="round"/>
<path d="M1.73108 1.01245L11.4219 8.89707L9.69779 4.21758L1.73108 1.01245Z" fill="#E27625" stroke="#E27625" stroke-width="0.426143" stroke-linecap="round" stroke-linejoin="round"/>
<path d="M20.756 19.1213L18.1401 23.4162L23.7287 25.0829L25.3042 19.2175L20.756 19.1213Z" fill="#E27625" stroke="#E27625" stroke-width="0.426143" stroke-linecap="round" stroke-linejoin="round"/>
<path d="M0.720337 19.2175L2.29584 25.0829L7.8547 23.4162L5.2685 19.1213L0.720337 19.2175Z" fill="#E27625" stroke="#E27625" stroke-width="0.426143" stroke-linecap="round" stroke-linejoin="round"/>
<path d="M7.55744 11.8777L6.01166 14.4097L11.5111 14.6661L11.3327 8.25586L7.55744 11.8777Z" fill="#E27625" stroke="#E27625" stroke-width="0.426143" stroke-linecap="round" stroke-linejoin="round"/>
<path d="M18.4671 11.8778L14.6324 8.19189L14.5135 14.6663L20.0129 14.4098L18.4671 11.8778Z" fill="#E27625" stroke="#E27625" stroke-width="0.426143" stroke-linecap="round" stroke-linejoin="round"/>
<path d="M7.85468 23.4162L11.184 21.6854L8.30057 19.2495L7.85468 23.4162Z" fill="#E27625" stroke="#E27625" stroke-width="0.426143" stroke-linecap="round" stroke-linejoin="round"/>
<path d="M14.8403 21.6854L18.14 23.4162L17.6941 19.2495L14.8403 21.6854Z" fill="#E27625" stroke="#E27625" stroke-width="0.426143" stroke-linecap="round" stroke-linejoin="round"/>
<path d="M18.14 23.4163L14.8404 21.6855L15.1079 23.9932L15.0782 24.9868L18.14 23.4163Z" fill="#D5BFB2" stroke="#D5BFB2" stroke-width="0.426143" stroke-linecap="round" stroke-linejoin="round"/>
<path d="M7.85486 23.4163L10.9464 24.9868L10.9167 23.9932L11.1842 21.6855L7.85486 23.4163Z" fill="#D5BFB2" stroke="#D5BFB2" stroke-width="0.426143" stroke-linecap="round" stroke-linejoin="round"/>
<path d="M11.0058 17.711L8.24121 16.8456L10.1734 15.884L11.0058 17.711Z" fill="#233447" stroke="#233447" stroke-width="0.426143" stroke-linecap="round" stroke-linejoin="round"/>
<path d="M15.0188 17.711L15.8214 15.884L17.7834 16.8456L15.0188 17.711Z" fill="#233447" stroke="#233447" stroke-width="0.426143" stroke-linecap="round" stroke-linejoin="round"/>
<path d="M7.85476 23.4162L8.33038 19.1213L5.26855 19.2175L7.85476 23.4162Z" fill="#CC6228" stroke="#CC6228" stroke-width="0.426143" stroke-linecap="round" stroke-linejoin="round"/>
<path d="M17.6943 19.1213L18.1402 23.4162L20.7561 19.2175L17.6943 19.1213Z" fill="#CC6228" stroke="#CC6228" stroke-width="0.426143" stroke-linecap="round" stroke-linejoin="round"/>
<path d="M20.0128 14.4099L14.5134 14.6663L15.0187 17.7112L15.8213 15.8843L17.7833 16.8458L20.0128 14.4099Z" fill="#CC6228" stroke="#CC6228" stroke-width="0.426143" stroke-linecap="round" stroke-linejoin="round"/>
<path d="M8.24121 16.8458L10.1734 15.8843L11.0058 17.7112L11.5111 14.6663L6.01172 14.4099L8.24121 16.8458Z" fill="#CC6228" stroke="#CC6228" stroke-width="0.426143" stroke-linecap="round" stroke-linejoin="round"/>
<path d="M6.01184 14.4099L8.30078 19.2497L8.24133 16.8458L6.01184 14.4099Z" fill="#E27525" stroke="#E27525" stroke-width="0.426143" stroke-linecap="round" stroke-linejoin="round"/>
<path d="M17.7835 16.8458L17.6943 19.2497L20.0129 14.4099L17.7835 16.8458Z" fill="#E27525" stroke="#E27525" stroke-width="0.426143" stroke-linecap="round" stroke-linejoin="round"/>
<path d="M11.5113 14.6663L11.006 17.7111L11.6302 21.3329L11.7789 16.5573L11.5113 14.6663Z" fill="#E27525" stroke="#E27525" stroke-width="0.426143" stroke-linecap="round" stroke-linejoin="round"/>
<path d="M14.5136 14.6663L14.246 16.5573L14.3649 21.3329L15.0189 17.7111L14.5136 14.6663Z" fill="#E27525" stroke="#E27525" stroke-width="0.426143" stroke-linecap="round" stroke-linejoin="round"/>
<path d="M15.0189 17.7111L14.3649 21.3329L14.8405 21.6854L17.6942 19.2495L17.7834 16.8457L15.0189 17.7111Z" fill="#F5841F" stroke="#F5841F" stroke-width="0.426143" stroke-linecap="round" stroke-linejoin="round"/>
<path d="M8.24121 16.8457L8.30066 19.2495L11.1841 21.6854L11.63 21.3329L11.0058 17.7111L8.24121 16.8457Z" fill="#F5841F" stroke="#F5841F" stroke-width="0.426143" stroke-linecap="round" stroke-linejoin="round"/>
<path d="M15.0784 24.9868L15.1081 23.9932L14.8406 23.7688H11.1545L10.9167 23.9932L10.9464 24.9868L7.85486 23.4163L8.92501 24.3778L11.1248 26.0124H14.8703L17.0701 24.3778L18.1402 23.4163L15.0784 24.9868Z" fill="#C0AC9D" stroke="#C0AC9D" stroke-width="0.426143" stroke-linecap="round" stroke-linejoin="round"/>
<path d="M14.8405 21.6853L14.3648 21.3328H11.63L11.1841 21.6853L10.9166 23.993L11.1544 23.7687H14.8405L15.108 23.993L14.8405 21.6853Z" fill="#161616" stroke="#161616" stroke-width="0.426143" stroke-linecap="round" stroke-linejoin="round"/>
<path d="M24.6799 9.34578L25.5122 5.01886L24.2637 1.01245L14.8404 8.57656L18.467 11.8778L23.58 13.4804L24.7096 12.0701L24.234 11.6855L25.0069 10.9163L24.4123 10.4035L25.1852 9.76245L24.6799 9.34578Z" fill="#763E1A" stroke="#763E1A" stroke-width="0.426143" stroke-linecap="round" stroke-linejoin="round"/>
<path d="M0.512329 5.01886L1.34467 9.34578L0.809594 9.76245L1.58248 10.4035L0.987953 10.9163L1.79057 11.6855L1.28522 12.0701L2.41483 13.4804L7.55751 11.8778L11.1842 8.57656L1.73112 1.01245L0.512329 5.01886Z" fill="#763E1A" stroke="#763E1A" stroke-width="0.426143" stroke-linecap="round" stroke-linejoin="round"/>
<path d="M23.58 13.4802L18.467 11.8777L20.0128 14.4097L17.6942 19.2495L20.756 19.2174H25.3041L23.58 13.4802Z" fill="#F5841F" stroke="#F5841F" stroke-width="0.426143" stroke-linecap="round" stroke-linejoin="round"/>
<path d="M7.55737 11.8777L2.41469 13.4802L0.720276 19.2174H5.26843L8.30054 19.2495L6.0116 14.4097L7.55737 11.8777Z" fill="#F5841F" stroke="#F5841F" stroke-width="0.426143" stroke-linecap="round" stroke-linejoin="round"/>
<path d="M14.5136 14.6662L14.8406 8.57651L16.3269 4.21753H9.69788L11.1842 8.57651L11.5112 14.6662L11.6301 16.5893V21.3329H14.3649V16.5893L14.5136 14.6662Z" fill="#F5841F" stroke="#F5841F" stroke-width="0.426143" stroke-linecap="round" stroke-linejoin="round"/>
</svg>
