<svg width="1847" height="267" viewBox="0 0 1847 267" fill="none" xmlns="http://www.w3.org/2000/svg">
<path d="M1025.61 29.1001L868.021 61.6597H1846.9V0L1819.4 11.8707C1814.89 13.8182 1810.13 15.1425 1805.26 15.8071L1678.64 33.088C1671.01 34.1285 1663.25 33.5327 1655.88 31.3402L1621.55 21.1353C1614.71 19.1022 1607.53 18.4404 1600.44 19.1881L1475.54 32.3481C1471.73 32.7492 1467.89 32.7457 1464.09 32.3377L1336.73 18.6833C1332.84 18.266 1328.91 18.2719 1325.02 18.7007L1195.73 32.9514L1038.27 28.0064C1034.02 27.873 1029.77 28.2401 1025.61 29.1001Z" fill="url(#paint0_linear_2313_434)"/>
<path d="M1845.82 68.0688H0L164.234 108.139C167.225 108.869 170.274 109.342 173.346 109.554L313.878 119.246C316.594 119.433 319.321 119.415 322.035 119.193L437.297 109.733C441.323 109.402 445.372 109.523 449.37 110.093L549.221 124.323C553.379 124.915 557.592 125.022 561.775 124.641L725.41 109.743C729.113 109.405 732.841 109.45 736.534 109.877L862.555 124.427C867.084 124.95 871.66 124.899 876.175 124.276L1031.1 102.889C1035.75 102.248 1040.46 102.213 1045.12 102.785L1194.32 121.121C1197.42 121.502 1200.55 121.614 1203.67 121.456L1359.31 113.569L1504.67 102.347C1508.32 102.065 1512 102.155 1515.64 102.615L1666.44 121.694L1845.82 161.777V68.0688Z" fill="url(#paint1_linear_2313_434)"/>
<path d="M1466.18 145.165C1466.31 145.127 1466.44 145.089 1466.58 145.052C1466.93 144.955 1467.28 144.854 1467.62 144.742C1467.97 144.628 1468.32 144.505 1468.66 144.348C1468.95 144.213 1469.22 144.055 1469.46 143.838C1469.75 143.568 1469.93 143.235 1470.02 142.853C1470.11 142.506 1470.13 142.153 1470.13 141.797C1470.13 141.358 1470.1 140.92 1470.05 140.483C1470.01 140.061 1469.96 139.64 1469.92 139.219C1469.91 139.213 1469.92 139.207 1469.92 139.202C1469.95 139.318 1469.98 139.434 1470.01 139.55C1470.11 139.901 1470.2 140.252 1470.3 140.6C1470.39 140.905 1470.49 141.209 1470.6 141.508C1470.73 141.861 1470.88 142.204 1471.08 142.524C1471.42 143.058 1471.9 143.371 1472.53 143.474C1472.87 143.529 1473.21 143.54 1473.55 143.533C1474.06 143.521 1474.57 143.475 1475.07 143.423C1475.24 143.405 1475.42 143.387 1475.59 143.378C1475.55 143.389 1475.52 143.401 1475.48 143.411C1475.02 143.534 1474.57 143.662 1474.13 143.807C1473.69 143.948 1473.27 144.1 1472.87 144.318C1472.58 144.472 1472.32 144.659 1472.12 144.912C1471.91 145.171 1471.79 145.468 1471.72 145.79C1471.65 146.136 1471.63 146.488 1471.63 146.84C1471.64 147.345 1471.69 147.847 1471.74 148.349C1471.78 148.674 1471.81 148.999 1471.85 149.324C1471.85 149.33 1471.85 149.336 1471.85 149.341C1471.83 149.273 1471.81 149.204 1471.79 149.136C1471.68 148.725 1471.57 148.314 1471.45 147.906C1471.3 147.413 1471.15 146.924 1470.92 146.459C1470.78 146.157 1470.61 145.872 1470.37 145.631C1470.08 145.329 1469.71 145.162 1469.3 145.083C1468.97 145.019 1468.64 145.006 1468.31 145.01C1467.86 145.015 1467.42 145.05 1466.97 145.094C1466.71 145.12 1466.45 145.147 1466.2 145.174C1466.19 145.174 1466.18 145.174 1466.18 145.174L1466.18 145.165Z" fill="#CBF27D"/>
<g clip-path="url(#clip0_2313_434)">
<path d="M627.286 249.113C627.54 249.215 627.796 249.316 628.05 249.418C628.715 249.685 629.382 249.944 630.057 250.183C630.744 250.426 631.438 250.651 632.151 250.806C632.765 250.94 633.383 251.019 634.013 250.963C634.798 250.892 635.478 250.586 636.084 250.101C636.635 249.66 637.09 249.131 637.515 248.574C638.041 247.884 638.512 247.158 638.97 246.423C639.413 245.713 639.839 244.994 640.266 244.275C640.272 244.264 640.281 244.257 640.292 244.253C640.202 244.472 640.111 244.691 640.02 244.911C639.747 245.572 639.476 246.236 639.221 246.904C638.997 247.491 638.782 248.082 638.597 248.682C638.378 249.391 638.2 250.108 638.133 250.85C638.021 252.091 638.406 253.163 639.27 254.077C639.733 254.569 640.253 254.995 640.798 255.392C641.607 255.982 642.455 256.516 643.309 257.039C643.6 257.217 643.89 257.396 644.175 257.59C644.103 257.562 644.031 257.536 643.96 257.507C643.102 257.158 642.24 256.816 641.366 256.509C640.521 256.21 639.669 255.938 638.781 255.799C638.149 255.7 637.519 255.681 636.895 255.832C636.257 255.987 635.71 256.308 635.219 256.73C634.689 257.186 634.246 257.719 633.831 258.276C633.237 259.076 632.705 259.915 632.188 260.767C631.854 261.319 631.524 261.873 631.192 262.426C631.187 262.437 631.178 262.445 631.166 262.449C631.219 262.319 631.271 262.189 631.325 262.06C631.649 261.287 631.966 260.511 632.264 259.724C632.623 258.776 632.963 257.822 633.174 256.828C633.312 256.184 633.387 255.535 633.304 254.872C633.2 254.044 632.824 253.342 632.271 252.721C631.835 252.23 631.333 251.813 630.808 251.422C630.103 250.896 629.365 250.418 628.617 249.955C628.18 249.685 627.742 249.419 627.304 249.15C627.294 249.143 627.284 249.135 627.274 249.127L627.286 249.113Z" fill="#CBF27D"/>
</g>
<defs>
<linearGradient id="paint0_linear_2313_434" x1="2051.02" y1="22.3888" x2="2003.23" y2="278.24" gradientUnits="userSpaceOnUse">
<stop stop-color="#CBF27D"/>
<stop offset="0.958333" stop-color="#1ED0CD" stop-opacity="0.0416667"/>
<stop offset="1" stop-color="#16CED0" stop-opacity="0"/>
</linearGradient>
<linearGradient id="paint1_linear_2313_434" x1="2054.54" y1="93.798" x2="2036.75" y2="291.196" gradientUnits="userSpaceOnUse">
<stop stop-color="#16CED0"/>
<stop offset="0.958333" stop-color="#CBF27D" stop-opacity="0.0416667"/>
<stop offset="1" stop-color="#CBF27D" stop-opacity="0"/>
</linearGradient>
<clipPath id="clip0_2313_434">
<rect width="18.8995" height="20.3534" fill="white" transform="translate(631.838 240.02) rotate(26.5968)"/>
</clipPath>
</defs>
</svg>
