<svg width="31" height="35" viewBox="0 0 31 35" fill="none" xmlns="http://www.w3.org/2000/svg">
<g clip-path="url(#clip0_462_165)">
<path d="M0.285568 17.4078C0.720423 17.37 1.15584 17.3305 1.5907 17.2933C2.72571 17.196 3.8596 17.0856 4.99011 16.9403C6.14203 16.7927 7.28831 16.6124 8.41431 16.3166C9.38316 16.062 10.3193 15.7233 11.1744 15.178C12.2413 14.4977 12.9916 13.5473 13.5075 12.3909C13.9779 11.3381 14.2488 10.2269 14.4567 9.09686C14.7135 7.69789 14.865 6.28518 14.994 4.86903C15.1185 3.5021 15.2126 2.13288 15.3078 0.763654C15.3082 0.74434 15.3158 0.725911 15.3292 0.712158C15.357 1.10048 15.3844 1.48899 15.4114 1.87769C15.4937 3.05008 15.5804 4.22362 15.6931 5.39143C15.7928 6.41792 15.9082 7.44269 16.0727 8.4606C16.2659 9.66217 16.5233 10.8449 16.9565 11.9841C17.6814 13.8889 18.9928 15.1785 20.8736 15.8863C21.883 16.2668 22.9262 16.51 23.984 16.6931C25.5567 16.9643 27.1424 17.1251 28.7303 17.2653C29.271 17.3128 29.8118 17.3614 30.3553 17.4369C30.2337 17.4495 30.1125 17.4638 29.9909 17.4736C28.5207 17.5914 27.0517 17.7236 25.5888 17.9141C24.1739 18.0978 22.7668 18.325 21.4048 18.7724C20.4353 19.0911 19.5256 19.5271 18.7455 20.208C17.9468 20.9043 17.3981 21.7775 16.9993 22.7582C16.5712 23.8167 16.3189 24.9245 16.1262 26.0482C15.8508 27.6578 15.6914 29.2822 15.5629 30.9117C15.4807 31.9674 15.4063 33.0231 15.3281 34.0793C15.3281 34.099 15.3206 34.1178 15.3072 34.132C15.2903 33.9031 15.2712 33.6742 15.2565 33.4453C15.1664 32.0721 15.0644 30.6989 14.9281 29.3257C14.7636 27.6703 14.5671 26.019 14.1604 24.4049C13.8973 23.3578 13.5408 22.3497 12.951 21.4382C12.2137 20.2984 11.1783 19.5443 9.94926 19.0396C8.97928 18.6391 7.96763 18.3965 6.94189 18.2077C5.56353 17.9536 4.17335 17.794 2.77979 17.6652C1.96584 17.5897 1.1519 17.5205 0.338517 17.4478C0.318415 17.4452 0.29848 17.4413 0.278809 17.4364L0.285568 17.4078Z" fill="#BCF085"/>
</g>
<defs>
<clipPath id="clip0_462_165">
<rect width="30.0737" height="33.4152" fill="white" transform="translate(0.283691 0.712158)"/>
</clipPath>
</defs>
</svg>
