<svg width="34" height="37" viewBox="0 0 34 37" fill="none" xmlns="http://www.w3.org/2000/svg">
<path d="M0.634438 18.1505C1.11593 18.1094 1.59805 18.0665 2.07955 18.0261C3.3363 17.9203 4.59181 17.8003 5.84358 17.6423C7.11904 17.4818 8.38827 17.2859 9.63505 16.9643C10.7078 16.6875 11.7444 16.3192 12.6912 15.7264C13.8725 14.9868 14.7032 13.9536 15.2745 12.6965C15.7953 11.552 16.0953 10.344 16.3255 9.1155C16.6099 7.59463 16.7777 6.05884 16.9205 4.51932C17.0583 3.03329 17.1625 1.54477 17.2679 0.0562569C17.2683 0.0352598 17.2768 0.0152259 17.2916 0.000274658C17.3224 0.422425 17.3527 0.844783 17.3826 1.26735C17.4737 2.54189 17.5698 3.81767 17.6945 5.08723C17.8049 6.20315 17.9327 7.31721 18.1149 8.4238C18.3288 9.73006 18.6138 11.0158 19.0935 12.2543C19.8962 14.325 21.3481 15.727 23.4307 16.4965C24.5483 16.9101 25.7034 17.1745 26.8747 17.3736C28.6161 17.6684 30.3718 17.8432 32.13 17.9956C32.7288 18.0472 33.3275 18.1001 33.9294 18.1822C33.7947 18.1959 33.6606 18.2114 33.5259 18.222C31.898 18.3501 30.2714 18.4938 28.6516 18.701C27.0849 18.9006 25.5269 19.1476 24.0188 19.634C22.9454 19.9805 21.9381 20.4545 21.0743 21.1947C20.1899 21.9517 19.5824 22.9009 19.1409 23.9671C18.6668 25.1178 18.3874 26.3221 18.1741 27.5437C17.8691 29.2935 17.6926 31.0595 17.5504 32.831C17.4594 33.9786 17.377 35.1263 17.2903 36.2745C17.2904 36.2959 17.2821 36.3164 17.2673 36.3318C17.2485 36.083 17.2273 35.8342 17.2111 35.5853C17.1113 34.0925 16.9984 32.5996 16.8475 31.1067C16.6654 29.3072 16.4477 27.512 15.9974 25.7573C15.7061 24.619 15.3113 23.5229 14.6583 22.5321C13.8419 21.293 12.6955 20.4731 11.3346 19.9245C10.2606 19.4891 9.14045 19.2253 8.0047 19.0201C6.4785 18.7439 4.93921 18.5703 3.39618 18.4304C2.49493 18.3483 1.59369 18.273 0.693065 18.194C0.670808 18.1911 0.648734 18.187 0.626953 18.1816L0.634438 18.1505Z" fill="#1DD0CC"/>
</svg>
