<svg width="25" height="20" viewBox="0 0 25 20" fill="none" xmlns="http://www.w3.org/2000/svg">
<path fill-rule="evenodd" clip-rule="evenodd" d="M22.4104 0.136826C22.7178 0.0156739 23.0542 -0.0261107 23.3847 0.015821C23.7152 0.0577526 24.0276 0.181868 24.2895 0.375248C24.5514 0.568629 24.7531 0.824205 24.8737 1.11537C24.9943 1.40654 25.0294 1.72266 24.9753 2.03083L22.1542 18.0553C21.8805 19.601 20.0695 20.4875 18.5557 19.7175C17.2895 19.0734 15.4088 18.0809 13.7171 17.0454C12.8713 16.5271 10.2803 14.8672 10.5988 13.6861C10.8724 12.6762 15.2259 8.88116 17.7136 6.6249C18.6901 5.73847 18.2448 5.22711 17.0917 6.04248C14.2271 8.06695 9.63104 11.1456 8.11105 12.0122C6.77017 12.7763 6.07112 12.9068 5.23525 12.7763C3.71028 12.5387 2.29602 12.1706 1.14172 11.7222C-0.418075 11.1165 -0.3422 9.1083 1.14048 8.52356L22.4104 0.136826Z" fill="currentColor"/>
</svg>
