<svg width="26" height="31" viewBox="0 0 26 31" fill="none" xmlns="http://www.w3.org/2000/svg">
<path d="M25.7064 12.1514C25.4621 12.1754 25.2145 12.1892 24.9668 12.1892C22.2626 12.1892 19.7374 10.8268 18.2546 8.56306V20.914C18.2546 25.9541 14.1674 30.0413 9.1273 30.0413C4.08717 30.0413 0 25.9541 0 20.914C0 15.8738 4.08717 11.7867 9.1273 11.7867C9.31652 11.7867 9.50571 11.8039 9.69149 11.8142V16.3108C9.50571 16.2867 9.31996 16.2557 9.1273 16.2557C6.55391 16.2557 4.46903 18.3406 4.46903 20.914C4.46903 23.4874 6.55391 25.5722 9.1273 25.5722C11.7007 25.5722 13.9748 23.5459 13.9748 20.9725L14.0195 0H18.3234C18.7294 3.86009 21.8394 6.87385 25.7099 7.15596V12.1548" fill="currentColor"/>
</svg>
