<svg width="27" height="22" viewBox="0 0 27 22" fill="none" xmlns="http://www.w3.org/2000/svg">
<path d="M26.2593 2.77748C25.4267 3.15248 24.5082 3.38299 23.6137 3.53092C24.0403 3.45867 24.663 2.68803 24.9141 2.3784C25.296 1.90363 25.6125 1.36005 25.7914 0.775185C25.8154 0.73046 25.8326 0.671976 25.7845 0.637572C25.726 0.613489 25.6882 0.62725 25.6434 0.647893C24.6423 1.18459 23.6068 1.57335 22.5059 1.84858C22.413 1.87266 22.3476 1.84858 22.2891 1.7901C22.1962 1.68689 22.1102 1.59055 22.0138 1.50798C21.5494 1.11234 21.054 0.806142 20.4932 0.575637C19.757 0.276325 18.9554 0.149033 18.1607 0.200639C17.39 0.252244 16.6332 0.46899 15.9485 0.826788C15.2639 1.18459 14.6515 1.68344 14.163 2.2855C13.6607 2.90821 13.2857 3.64101 13.0964 4.41853C12.9141 5.16853 12.9279 5.91165 13.0414 6.67197C13.0586 6.79926 13.0483 6.81647 12.9313 6.79927C8.62053 6.15936 5.04595 4.61463 2.14572 1.30844C2.01843 1.16394 1.95311 1.16394 1.8499 1.31876C0.580404 3.22128 1.19622 6.27977 2.78223 7.77977C2.99209 7.97931 3.21225 8.17885 3.44619 8.36463C3.36018 8.38184 2.30397 8.2683 1.36475 7.77977C1.23746 7.70064 1.17559 7.74537 1.16527 7.88986C1.15495 8.09628 1.1721 8.28551 1.19962 8.50914C1.44389 10.4392 2.77881 12.2213 4.60908 12.9162C4.82582 13.0091 5.06665 13.0883 5.3006 13.1261C4.88431 13.219 4.45421 13.2844 3.2604 13.188C3.11246 13.1605 3.054 13.2328 3.11249 13.3773C4.01042 15.8268 5.95078 16.5527 7.40262 16.969C7.59528 17.0034 7.79136 17.0034 7.98746 17.0481C7.97714 17.0653 7.96343 17.0653 7.95311 17.0825C7.47146 17.8153 5.80287 18.3623 5.02535 18.6341C3.61136 19.1295 2.0701 19.3497 0.576981 19.2018C0.339595 19.1674 0.28798 19.1708 0.222613 19.2018C0.157246 19.2431 0.215715 19.2981 0.291403 19.3601C0.594155 19.5596 0.903768 19.7385 1.21684 19.9105C2.16638 20.4128 3.15726 20.8153 4.18937 21.1009C9.53226 22.5768 15.5529 21.4931 19.5643 17.5057C22.7157 14.375 23.82 10.0573 23.82 5.73619C23.82 5.56761 24.0196 5.47472 24.1401 5.38528C24.9589 4.76945 25.6194 4.03321 26.2317 3.21096C26.3694 3.02518 26.3694 2.86005 26.3694 2.79468V2.77059C26.3694 2.70179 26.3694 2.72243 26.2627 2.77059L26.2593 2.77748Z" fill="currentColor"/>
</svg>
