<svg width="32" height="32" viewBox="0 0 32 32" fill="none" xmlns="http://www.w3.org/2000/svg">
<g clip-path="url(#clip0_841_62)">
<path d="M16 32C24.8366 32 32 24.8366 32 16C32 7.16344 24.8366 0 16 0C7.16344 0 0 7.16344 0 16C0 24.8366 7.16344 32 16 32Z" fill="#26A17B"/>
<path fill-rule="evenodd" clip-rule="evenodd" d="M17.922 17.3831V17.3811C17.812 17.3891 17.245 17.4231 15.98 17.4231C14.97 17.4231 14.259 17.3931 14.009 17.3811V17.3841C10.121 17.2131 7.21899 16.5361 7.21899 15.7261C7.21899 14.9171 10.121 14.2401 14.009 14.0661V16.7101C14.263 16.7281 14.991 16.7711 15.997 16.7711C17.204 16.7711 17.809 16.7211 17.922 16.7111V14.0681C21.802 14.2411 24.697 14.9181 24.697 15.7261C24.697 16.5361 21.802 17.2111 17.922 17.3831ZM17.922 13.7931V11.4271H23.336V7.81909H8.59499V11.4271H14.009V13.7921C9.60899 13.9941 6.29999 14.8661 6.29999 15.9101C6.29999 16.9541 9.60899 17.8251 14.009 18.0281V25.6101H17.922V18.0261C22.315 17.8241 25.616 16.9531 25.616 15.9101C25.616 14.8671 22.315 13.9961 17.922 13.7931Z" fill="white"/>
</g>
<defs>
<clipPath id="clip0_841_62">
<rect width="32" height="32" fill="white"/>
</clipPath>
</defs>
</svg>
